<?xml version="1.0" standalone="no"?>
<!DOCTYPE svg PUBLIC "-//W3C//DTD SVG 20010904//EN"
 "http://www.w3.org/TR/2001/REC-SVG-20010904/DTD/svg10.dtd">
<svg version="1.0" xmlns="http://www.w3.org/2000/svg"
 width="288.000000pt" height="288.000000pt" viewBox="0 0 288.000000 288.000000"
 preserveAspectRatio="xMidYMid meet">
<metadata>
Created by potrace 1.14, written by Peter Selinger 2001-2017
</metadata>
<g transform="translate(0.000000,288.000000) scale(0.100000,-0.100000)"
fill="#000000" stroke="none">
<path d="M973 2859 c-148 -58 -235 -239 -198 -409 61 -278 402 -352 553 -120
63 98 77 227 37 339 -25 68 -99 151 -162 181 -68 32 -164 36 -230 9z"/>
<path d="M1871 2868 c-79 -21 -168 -106 -205 -196 -25 -62 -29 -177 -10 -244
42 -140 149 -228 287 -236 60 -4 75 -1 131 27 157 77 228 255 171 433 -51 165
-213 258 -374 216z"/>
<path d="M383 2181 c-86 -22 -167 -95 -212 -191 -22 -47 -26 -68 -25 -150 0
-82 4 -103 27 -151 105 -221 368 -256 517 -68 136 172 77 446 -117 540 -47 23
-140 33 -190 20z"/>
<path d="M1334 1911 c-40 -16 -87 -38 -105 -51 -63 -43 -139 -132 -174 -204
-63 -130 -63 -130 -64 -681 -1 -479 0 -504 20 -575 47 -167 150 -292 291 -354
240 -106 502 -1 627 251 45 90 61 189 61 373 0 121 3 160 13 161 6 0 80 2 162
3 219 4 292 31 410 150 116 117 168 254 160 426 -4 97 -8 122 -34 191 -61 160
-193 284 -347 324 -49 13 -131 15 -504 14 l-445 0 -71 -28z"/>
<path d="M359 1204 c-56 -17 -138 -88 -172 -148 -99 -178 -32 -412 142 -499
36 -17 63 -22 126 -22 70 0 87 4 133 30 181 99 232 355 106 528 -78 108 -207
151 -335 111z"/>
</g>
</svg>
